<?xml version="1.0" encoding="UTF-8" standalone="no"?><!DOCTYPE svg PUBLIC "-//W3C//DTD SVG 1.1//EN" "http://www.w3.org/Graphics/SVG/1.1/DTD/svg11.dtd"><svg width="100%" height="100%" viewBox="0 0 120 120" version="1.1" xmlns="http://www.w3.org/2000/svg" xmlns:xlink="http://www.w3.org/1999/xlink" xml:space="preserve" xmlns:serif="http://www.serif.com/" style="fill-rule:evenodd;clip-rule:evenodd;stroke-linejoin:round;stroke-miterlimit:2;"><path d="M120,-0l0,120l-120,0l-0,-120l120,0Zm-15,15l-90,0l0,90l90,0l0,-90Z"/><path d="M120,-0l0,66.516l-120,0l-0,-66.516l120,0Zm-15,15l-90,-0l0,36.516l90,0l0,-36.516Z"/><path d="M52.324,-0l0,66.516l-52.324,0l0,-66.516l52.324,0Zm-15,15l-22.324,0l-0,36.516l22.324,-0l0,-36.516Z"/></svg>